<svg width="16" height="16" viewBox="0 0 16 16" fill="none" xmlns="http://www.w3.org/2000/svg">
<g clip-path="url(#clip0_36_1687)">
<path d="M5.15503 10.3439H5.15576C5.15637 10.3439 5.15698 10.3437 5.15759 10.3437H13.6562C13.8655 10.3437 14.0494 10.205 14.1069 10.0038L15.9819 3.44128C16.0223 3.2998 15.994 3.1477 15.9055 3.03027C15.8169 2.91284 15.6783 2.84375 15.5312 2.84375H4.07397L3.73889 1.33582C3.69116 1.12134 3.50098 0.96875 3.28125 0.96875H0.46875C0.209839 0.96875 0 1.17859 0 1.4375C0 1.69641 0.209839 1.90625 0.46875 1.90625H2.90527C2.9646 2.17346 4.50879 9.12243 4.59765 9.52221C4.09949 9.73877 3.75 10.2355 3.75 10.8125C3.75 11.5879 4.38086 12.2187 5.15625 12.2187H13.6562C13.9152 12.2187 14.125 12.0089 14.125 11.75C14.125 11.4911 13.9152 11.2812 13.6562 11.2812H5.15625C4.89783 11.2812 4.6875 11.0709 4.6875 10.8125C4.6875 10.5544 4.89709 10.3445 5.15503 10.3439ZM14.9098 3.78125L13.3026 9.40625H5.53222L4.28222 3.78125H14.9098Z" fill="white"/>
<path d="M4.6875 13.625C4.6875 14.4004 5.31836 15.0312 6.09375 15.0312C6.86914 15.0312 7.5 14.4004 7.5 13.625C7.5 12.8496 6.86914 12.2188 6.09375 12.2188C5.31836 12.2188 4.6875 12.8496 4.6875 13.625ZM6.09375 13.1562C6.35217 13.1562 6.5625 13.3666 6.5625 13.625C6.5625 13.8834 6.35217 14.0937 6.09375 14.0937C5.83533 14.0937 5.625 13.8834 5.625 13.625C5.625 13.3666 5.83533 13.1562 6.09375 13.1562Z" fill="white"/>
<path d="M11.3125 13.625C11.3125 14.4004 11.9434 15.0312 12.7187 15.0312C13.4941 15.0312 14.125 14.4004 14.125 13.625C14.125 12.8496 13.4941 12.2188 12.7187 12.2188C11.9434 12.2188 11.3125 12.8496 11.3125 13.625ZM12.7187 13.1562C12.9772 13.1562 13.1875 13.3666 13.1875 13.625C13.1875 13.8834 12.9772 14.0937 12.7187 14.0937C12.4603 14.0937 12.25 13.8834 12.25 13.625C12.25 13.3666 12.4603 13.1562 12.7187 13.1562Z" fill="white"/>
</g>
<defs>
<clipPath id="clip0_36_1687">
<rect width="16" height="16" fill="white"/>
</clipPath>
</defs>
</svg>
